<svg width="1920" height="980" viewBox="0 0 1920 980" fill="none" xmlns="http://www.w3.org/2000/svg">
<g clip-path="url(#clip0_418_257)">
<rect width="1920" height="980" fill="url(#paint0_linear_418_257)"/>
<path d="M1104.64 405.32C1090.16 405.32 1078.61 410.01 1070.01 419.38C1061.4 428.75 1057.1 441.45 1057.1 457.46C1057.1 473.47 1061.4 485.96 1070.01 495.41C1078.61 504.87 1090.16 509.59 1104.64 509.59C1119.12 509.59 1130.41 504.82 1139.01 495.28C1147.61 485.74 1151.92 473.13 1151.92 457.46C1151.92 441.79 1147.62 428.97 1139.01 419.51C1130.4 410.05 1118.95 405.33 1104.64 405.33V405.32Z" fill="#2C2C2C"/>
<path d="M0 0V980H1920V0H0ZM644.64 488.38V547.67H600.94V488.38L538.84 368.27H588.42L623.18 443.41L657.68 368.27H706.75L644.65 488.38H644.64ZM834.27 403.27H768.08V439.56H826.6V473.29H768.08V512.65H834.27V547.66H724.38V368.26H834.27V403.27ZM985.17 522.11C979.97 530.46 972.43 537.1 962.55 542.04C952.67 546.98 940.99 549.45 927.54 549.45C914.09 549.45 902.66 547.32 892.27 543.06C881.88 538.8 873.57 532.5 867.35 524.15C861.13 515.8 857.85 505.75 857.51 493.99H904.02C904.7 500.63 907 505.71 910.92 509.2C914.84 512.69 919.95 514.44 926.25 514.44C932.55 514.44 937.83 512.95 941.58 509.97C945.33 506.99 947.2 502.86 947.2 497.58C947.2 493.15 945.71 489.49 942.73 486.59C939.75 483.69 936.09 481.31 931.74 479.43C927.4 477.56 921.22 475.43 913.21 473.04C901.62 469.46 892.17 465.88 884.84 462.31C877.51 458.73 871.21 453.45 865.93 446.47C860.65 439.49 858.01 430.37 858.01 419.13C858.01 402.43 864.06 389.36 876.15 379.9C888.25 370.44 904.01 365.72 923.43 365.72C942.85 365.72 959.12 370.45 971.22 379.9C983.32 389.36 989.79 402.52 990.64 419.38H943.36C943.02 413.59 940.89 409.03 936.97 405.71C933.05 402.39 928.03 400.73 921.89 400.73C916.61 400.73 912.35 402.14 909.11 404.95C905.87 407.76 904.25 411.81 904.25 417.09C904.25 422.88 906.97 427.4 912.43 430.63C917.88 433.87 926.4 437.36 937.99 441.11C949.57 445.03 958.99 448.78 966.23 452.35C973.47 455.93 979.73 461.13 985.01 467.94C990.29 474.76 992.93 483.53 992.93 494.26C992.93 504.99 990.33 513.77 985.14 522.12L985.17 522.11ZM1184.12 504.86C1175.94 518.92 1164.86 529.87 1150.9 537.7C1136.93 545.54 1121.51 549.46 1104.64 549.46C1087.77 549.46 1072.31 545.54 1058.26 537.7C1044.2 529.87 1033.04 518.92 1024.78 504.86C1016.51 490.8 1012.39 475 1012.39 457.45C1012.39 439.9 1016.52 424.14 1024.78 410.17C1033.04 396.2 1044.2 385.3 1058.26 377.46C1072.32 369.63 1087.78 365.7 1104.64 365.7C1121.5 365.7 1136.97 369.62 1151.02 377.46C1165.08 385.3 1176.15 396.2 1184.24 410.17C1192.33 424.14 1196.38 439.9 1196.38 457.45C1196.38 475 1192.29 490.8 1184.11 504.86H1184.12ZM1381.16 547.67H1337.46L1264.37 437.01V547.67H1220.67V368.27H1264.37L1337.46 479.44V368.27H1381.16V547.67Z" fill="#2C2C2C"/>
</g>
<defs>
<linearGradient id="paint0_linear_418_257" x1="975" y1="341.5" x2="973" y2="517.5" gradientUnits="userSpaceOnUse">
<stop stop-color="#92A921"/>
<stop offset="1" stop-color="#D6D7DB"/>
</linearGradient>
<clipPath id="clip0_418_257">
<rect width="1920" height="980" fill="white"/>
</clipPath>
</defs>
</svg>
