<svg width="1920" height="2543" viewBox="0 0 1920 2543" fill="none" xmlns="http://www.w3.org/2000/svg">
<path d="M0 1592H1920V2543H0V1592Z" fill="#2C2C2C"/>
<rect width="1920" height="951" fill="#2C2C2C"/>
<g clip-path="url(#clip0_422_214)">
<rect width="1920" height="980" transform="translate(0 774)" fill="url(#paint0_linear_422_214)"/>
<path d="M1104.64 1179.32C1090.16 1179.32 1078.61 1184.01 1070.01 1193.38C1061.4 1202.75 1057.1 1215.45 1057.1 1231.46C1057.1 1247.47 1061.4 1259.96 1070.01 1269.41C1078.61 1278.87 1090.16 1283.59 1104.64 1283.59C1119.12 1283.59 1130.41 1278.82 1139.01 1269.28C1147.61 1259.74 1151.92 1247.13 1151.92 1231.46C1151.92 1215.79 1147.62 1202.97 1139.01 1193.51C1130.4 1184.05 1118.95 1179.33 1104.64 1179.33V1179.32Z" fill="#2C2C2C"/>
<path d="M0 774V1754H1920V774H0ZM644.64 1262.38V1321.67H600.94V1262.38L538.84 1142.27H588.42L623.18 1217.41L657.68 1142.27H706.75L644.65 1262.38H644.64ZM834.27 1177.27H768.08V1213.56H826.6V1247.29H768.08V1286.65H834.27V1321.66H724.38V1142.26H834.27V1177.27ZM985.17 1296.11C979.97 1304.46 972.43 1311.1 962.55 1316.04C952.67 1320.98 940.99 1323.45 927.54 1323.45C914.09 1323.45 902.66 1321.32 892.27 1317.06C881.88 1312.8 873.57 1306.5 867.35 1298.15C861.13 1289.8 857.85 1279.75 857.51 1267.99H904.02C904.7 1274.63 907 1279.71 910.92 1283.2C914.84 1286.69 919.95 1288.44 926.25 1288.44C932.55 1288.44 937.83 1286.95 941.58 1283.97C945.33 1280.99 947.2 1276.86 947.2 1271.58C947.2 1267.15 945.71 1263.49 942.73 1260.59C939.75 1257.69 936.09 1255.31 931.74 1253.43C927.4 1251.56 921.22 1249.43 913.21 1247.04C901.62 1243.46 892.17 1239.88 884.84 1236.31C877.51 1232.73 871.21 1227.45 865.93 1220.47C860.65 1213.49 858.01 1204.37 858.01 1193.13C858.01 1176.43 864.06 1163.36 876.15 1153.9C888.25 1144.44 904.01 1139.72 923.43 1139.72C942.85 1139.72 959.12 1144.45 971.22 1153.9C983.32 1163.36 989.79 1176.52 990.64 1193.38H943.36C943.02 1187.59 940.89 1183.03 936.97 1179.71C933.05 1176.39 928.03 1174.73 921.89 1174.73C916.61 1174.73 912.35 1176.14 909.11 1178.95C905.87 1181.76 904.25 1185.81 904.25 1191.09C904.25 1196.88 906.97 1201.4 912.43 1204.63C917.88 1207.87 926.4 1211.36 937.99 1215.11C949.57 1219.03 958.99 1222.78 966.23 1226.35C973.47 1229.93 979.73 1235.13 985.01 1241.94C990.29 1248.76 992.93 1257.53 992.93 1268.26C992.93 1278.99 990.33 1287.77 985.14 1296.12L985.17 1296.11ZM1184.12 1278.86C1175.94 1292.92 1164.86 1303.87 1150.9 1311.7C1136.93 1319.54 1121.51 1323.46 1104.64 1323.46C1087.77 1323.46 1072.31 1319.54 1058.26 1311.7C1044.2 1303.87 1033.04 1292.92 1024.78 1278.86C1016.51 1264.8 1012.39 1249 1012.39 1231.45C1012.39 1213.9 1016.52 1198.14 1024.78 1184.17C1033.04 1170.2 1044.2 1159.3 1058.26 1151.46C1072.32 1143.63 1087.78 1139.7 1104.64 1139.7C1121.5 1139.7 1136.97 1143.62 1151.02 1151.46C1165.08 1159.3 1176.15 1170.2 1184.24 1184.17C1192.33 1198.14 1196.38 1213.9 1196.38 1231.45C1196.38 1249 1192.29 1264.8 1184.11 1278.86H1184.12ZM1381.16 1321.67H1337.46L1264.37 1211.01V1321.67H1220.67V1142.27H1264.37L1337.46 1253.44V1142.27H1381.16V1321.67Z" fill="#2C2C2C"/>
</g>
<defs>
<linearGradient id="paint0_linear_422_214" x1="960" y1="369.5" x2="960" y2="490" gradientUnits="userSpaceOnUse">
<stop stop-color="#8EA619"/>
<stop offset="1" stop-color="#D6D7D8"/>
</linearGradient>
<clipPath id="clip0_422_214">
<rect width="1920" height="980" fill="white" transform="translate(0 774)"/>
</clipPath>
</defs>
</svg>
