<?xml version="1.0" encoding="UTF-8"?>
<svg id="_레이어_2" data-name="레이어 2" xmlns="http://www.w3.org/2000/svg" viewBox="0 0 1920 980">
  <defs>
    <style>
      .cls-1 {
        fill: #2c2c2c;
      }
    </style>
  </defs>
  <g id="_레이어_1-2" data-name="레이어 1">
    <g>
      <path class="cls-1" d="M1104.64,405.32c-14.48,0-26.03,4.69-34.63,14.06-8.61,9.37-12.91,22.07-12.91,38.08s4.3,28.5,12.91,37.95c8.6,9.46,20.15,14.18,34.63,14.18s25.77-4.77,34.37-14.31c8.6-9.54,12.91-22.15,12.91-37.82s-4.3-28.49-12.91-37.95c-8.61-9.46-20.06-14.18-34.37-14.18Z"/>
      <path class="cls-1" d="M0,0v980h1920V0H0ZM644.64,488.38v59.29h-43.7v-59.29l-62.1-120.11h49.58l34.76,75.14,34.5-75.14h49.07l-62.1,120.11ZM834.27,403.27h-66.19v36.29h58.52v33.73h-58.52v39.36h66.19v35.01h-109.89v-179.4h109.89v35.01ZM985.17,522.11c-5.2,8.35-12.74,14.99-22.62,19.93-9.88,4.94-21.56,7.41-35.01,7.41s-24.88-2.13-35.27-6.39c-10.39-4.26-18.7-10.56-24.92-18.91-6.22-8.35-9.5-18.4-9.84-30.16h46.51c.68,6.64,2.98,11.72,6.9,15.21,3.92,3.49,9.03,5.24,15.33,5.24s11.58-1.49,15.33-4.47c3.75-2.98,5.62-7.11,5.62-12.39,0-4.43-1.49-8.09-4.47-10.99-2.98-2.9-6.64-5.28-10.99-7.16-4.34-1.87-10.52-4-18.53-6.39-11.59-3.58-21.04-7.16-28.37-10.73-7.33-3.58-13.63-8.86-18.91-15.84-5.28-6.98-7.92-16.1-7.92-27.34,0-16.7,6.05-29.77,18.14-39.23,12.1-9.46,27.86-14.18,47.28-14.18s35.69,4.73,47.79,14.18c12.1,9.46,18.57,22.62,19.42,39.48h-47.28c-.34-5.79-2.47-10.35-6.39-13.67-3.92-3.32-8.94-4.98-15.08-4.98-5.28,0-9.54,1.41-12.78,4.22-3.24,2.81-4.86,6.86-4.86,12.14,0,5.79,2.72,10.31,8.18,13.54,5.45,3.24,13.97,6.73,25.56,10.48,11.58,3.92,21,7.67,28.24,11.24,7.24,3.58,13.5,8.78,18.78,15.59,5.28,6.82,7.92,15.59,7.92,26.32s-2.6,19.51-7.79,27.86ZM1184.12,504.86c-8.18,14.06-19.26,25.01-33.22,32.84-13.97,7.84-29.39,11.76-46.26,11.76s-32.33-3.92-46.38-11.76c-14.06-7.83-25.22-18.78-33.48-32.84-8.27-14.06-12.39-29.86-12.39-47.41s4.13-33.31,12.39-47.28c8.26-13.97,19.42-24.87,33.48-32.71,14.06-7.83,29.52-11.76,46.38-11.76s32.33,3.92,46.38,11.76c14.06,7.84,25.13,18.74,33.22,32.71,8.09,13.97,12.14,29.73,12.14,47.28s-4.09,33.35-12.27,47.41ZM1381.16,547.67h-43.7l-73.09-110.66v110.66h-43.7v-179.4h43.7l73.09,111.17v-111.17h43.7v179.4Z"/>
    </g>
  </g>
</svg>