<svg width="135" height="58" viewBox="0 0 135 58" fill="none" xmlns="http://www.w3.org/2000/svg">
<path d="M57.1372 19.1279L50.0495 32.7657V39.4983H45.0643V32.7657L37.9766 19.1279H43.6337L47.6003 27.6587L51.5379 19.1279H57.1372Z" fill="#313131"/>
<path d="M64.1386 23.1056V27.2272H70.8145V31.061H64.1386V35.5278H71.6887V39.5055H59.1533V19.1279H71.6887V23.1056H64.1386Z" fill="#313131"/>
<path d="M78.307 38.9804C77.1221 38.4985 76.1756 37.7792 75.4675 36.8297C74.7595 35.8802 74.3838 34.7366 74.3477 33.4059H79.6508C79.7303 34.1611 79.9904 34.7366 80.4383 35.1322C80.8863 35.5278 81.4715 35.7292 82.1868 35.7292C82.9021 35.7292 83.509 35.5566 83.9352 35.2185C84.3615 34.8804 84.5783 34.4129 84.5783 33.8087C84.5783 33.3052 84.4049 32.888 84.0653 32.5571C83.7257 32.2262 83.3066 31.9601 82.8081 31.7443C82.3096 31.5285 81.6088 31.2912 80.6912 31.0178C79.369 30.615 78.2925 30.205 77.4544 29.8022C76.6163 29.3994 75.901 28.7952 75.2941 28.004C74.6945 27.2128 74.391 26.177 74.391 24.8966C74.391 22.9977 75.0774 21.516 76.4574 20.4442C77.8373 19.3725 79.6364 18.833 81.8472 18.833C84.0581 18.833 85.9221 19.3725 87.3021 20.4442C88.682 21.516 89.419 23.0121 89.5201 24.9254H84.1303C84.0942 24.2709 83.8485 23.753 83.4006 23.3717C82.9526 22.9977 82.3819 22.8035 81.681 22.8035C81.0814 22.8035 80.5901 22.9617 80.2216 23.2854C79.8531 23.6019 79.6653 24.0623 79.6653 24.6665C79.6653 25.321 79.9759 25.8389 80.5973 26.2058C81.2186 26.5726 82.194 26.9682 83.5162 27.3926C84.8384 27.8386 85.9149 28.2629 86.7385 28.6729C87.5622 29.0757 88.2774 29.6727 88.8843 30.4424C89.484 31.2192 89.7875 32.2118 89.7875 33.4346C89.7875 34.6574 89.4912 35.6501 88.8988 36.5995C88.3063 37.549 87.4466 38.3043 86.3195 38.8653C85.1924 39.4264 83.863 39.7069 82.3241 39.7069C80.7851 39.7069 79.4846 39.4623 78.2997 38.9804H78.307Z" fill="#313131"/>
<path d="M97.2362 38.3758C95.6322 37.4839 94.3606 36.2395 93.4141 34.6427C92.4677 33.0459 91.998 31.2548 91.998 29.2552C91.998 27.2556 92.4677 25.4717 93.4141 23.8893C94.3534 22.2996 95.6322 21.0625 97.2362 20.1777C98.8401 19.2858 100.603 18.8398 102.525 18.8398C104.447 18.8398 106.21 19.2858 107.814 20.1777C109.418 21.0697 110.682 22.3068 111.607 23.8893C112.531 25.4789 112.994 27.2628 112.994 29.2552C112.994 31.2476 112.524 33.0459 111.592 34.6427C110.66 36.2395 109.396 37.4839 107.799 38.3758C106.202 39.2678 104.447 39.7137 102.525 39.7137C100.603 39.7137 98.8401 39.2678 97.2362 38.3758ZM106.448 33.5566C107.431 32.4704 107.922 31.039 107.922 29.2624C107.922 27.4857 107.431 26.0256 106.448 24.9538C105.465 23.8821 104.158 23.3426 102.525 23.3426C100.892 23.3426 99.5554 23.8749 98.5728 24.9394C97.5902 26.004 97.0989 27.4426 97.0989 29.2624C97.0989 31.0822 97.5902 32.4992 98.5728 33.571C99.5554 34.6427 100.87 35.1822 102.525 35.1822C104.179 35.1822 105.465 34.6427 106.448 33.5566Z" fill="#313131"/>
<path d="M134.077 39.5055H129.091L120.754 26.9394V39.5055H115.769V19.1279H120.754L129.091 31.7515V19.1279H134.077V39.5055Z" fill="#313131"/>
<path d="M38.4224 46.7873C38.6943 46.2769 39.0749 45.8825 39.5643 45.6041C40.0536 45.3257 40.6052 45.1865 41.2344 45.1865C42.05 45.1865 42.718 45.3799 43.2462 45.7743C43.7744 46.1687 44.124 46.71 44.2871 47.406H43.1064C42.9899 47.0039 42.7724 46.6868 42.4461 46.4548C42.1199 46.2228 41.716 46.1068 41.2344 46.1068C40.6052 46.1068 40.1002 46.3233 39.7119 46.7487C39.3235 47.174 39.1293 47.7849 39.1293 48.566C39.1293 49.3471 39.3235 49.9735 39.7119 50.4066C40.1002 50.8396 40.6052 51.0562 41.2344 51.0562C41.716 51.0562 42.1199 50.9402 42.4384 50.7159C42.7569 50.4916 42.9821 50.1745 43.0986 49.7569H44.2794C44.1007 50.4298 43.7511 50.9711 43.2152 51.3732C42.6869 51.7754 42.0189 51.9764 41.2266 51.9764C40.5974 51.9764 40.0381 51.8372 39.5565 51.5588C39.0671 51.2804 38.6865 50.8783 38.4146 50.3679C38.1428 49.8575 38.0029 49.2543 38.0029 48.566C38.0029 47.8777 38.1428 47.29 38.4146 46.7796L38.4224 46.7873Z" fill="#313131"/>
<path d="M46.9517 51.5665C46.4468 51.2881 46.0506 50.8859 45.771 50.3678C45.4836 49.8497 45.3438 49.2542 45.3438 48.5737C45.3438 47.8931 45.4913 47.3054 45.7865 46.7873C46.0817 46.2691 46.4779 45.8747 46.9905 45.5963C47.5032 45.3179 48.0625 45.1787 48.6917 45.1787C49.3209 45.1787 49.8879 45.3179 50.3929 45.5963C50.8978 45.8747 51.3017 46.2691 51.5969 46.7795C51.8921 47.2899 52.0396 47.8931 52.0396 48.5737C52.0396 49.2542 51.8921 49.8497 51.5891 50.3678C51.2862 50.8859 50.8822 51.2803 50.3618 51.5665C49.8491 51.8449 49.2743 51.9841 48.6451 51.9841C48.0159 51.9841 47.4644 51.8449 46.9595 51.5665H46.9517ZM49.7404 50.7467C50.0899 50.5611 50.3696 50.2827 50.5793 49.9193C50.789 49.5481 50.8978 49.0995 50.8978 48.5737C50.8978 48.0478 50.7968 47.5993 50.5871 47.2281C50.3773 46.8569 50.1054 46.5862 49.7637 46.4083C49.4219 46.2305 49.0568 46.1376 48.6684 46.1376C48.28 46.1376 47.8994 46.2305 47.5654 46.4083C47.2313 46.5862 46.9672 46.8646 46.7653 47.2281C46.5633 47.5993 46.4623 48.0478 46.4623 48.5737C46.4623 49.0995 46.5633 49.5635 46.7575 49.9347C46.9517 50.3059 47.2158 50.5766 47.5498 50.7545C47.8761 50.9323 48.2412 51.0251 48.6373 51.0251C49.0335 51.0251 49.3986 50.9323 49.7481 50.7467H49.7404Z" fill="#313131"/>
<path d="M62.8058 45.4886C63.2097 45.6974 63.5282 46.0222 63.7612 46.4476C63.9942 46.8729 64.1108 47.391 64.1108 47.9942V51.8764H63.0233V48.1489C63.0233 47.4916 62.8601 46.9889 62.5339 46.6409C62.2076 46.2929 61.7649 46.115 61.2133 46.115C60.6618 46.115 60.188 46.3006 59.8462 46.6641C59.5044 47.0276 59.3413 47.5534 59.3413 48.2417V51.8687H58.2538V48.1412C58.2538 47.4838 58.0907 46.9812 57.7644 46.6332C57.4382 46.2852 56.9954 46.1073 56.4439 46.1073C55.8924 46.1073 55.4185 46.2929 55.0767 46.6564C54.735 47.0198 54.5718 47.5457 54.5718 48.234V51.8609H53.4766V45.2721H54.5718V46.2233C54.7893 45.8753 55.0845 45.6124 55.4496 45.4268C55.8147 45.2412 56.2186 45.1484 56.6614 45.1484C57.2129 45.1484 57.71 45.2721 58.1373 45.5196C58.5645 45.767 58.883 46.1305 59.0927 46.61C59.2792 46.146 59.5821 45.7825 60.0093 45.5273C60.4366 45.2721 60.9104 45.1406 61.4308 45.1406C61.9513 45.1406 62.4018 45.2489 62.8058 45.4577V45.4886Z" fill="#313131"/>
<path d="M75.2345 45.4886C75.6384 45.6974 75.9569 46.0222 76.1899 46.4476C76.423 46.8729 76.5395 47.391 76.5395 47.9942V51.8764H75.452V48.1489C75.452 47.4916 75.2888 46.9889 74.9626 46.6409C74.6363 46.2929 74.1936 46.115 73.6421 46.115C73.0905 46.115 72.6167 46.3006 72.2749 46.6641C71.9331 47.0276 71.77 47.5534 71.77 48.2417V51.8687H70.6825V48.1412C70.6825 47.4838 70.5194 46.9812 70.1931 46.6332C69.8669 46.2852 69.4241 46.1073 68.8726 46.1073C68.3211 46.1073 67.8472 46.2929 67.5055 46.6564C67.1637 47.0198 67.0005 47.5457 67.0005 48.234V51.8609H65.9053V45.2721H67.0005V46.2233C67.218 45.8753 67.5132 45.6124 67.8783 45.4268C68.2434 45.2412 68.6473 45.1484 69.0901 45.1484C69.6416 45.1484 70.1388 45.2721 70.566 45.5196C70.9932 45.767 71.3117 46.1305 71.5214 46.61C71.7079 46.146 72.0108 45.7825 72.438 45.5273C72.8653 45.2721 73.3391 45.1406 73.8596 45.1406C74.38 45.1406 74.8305 45.2489 75.2345 45.4577V45.4886Z" fill="#313131"/>
<path d="M84.2062 45.2949V51.8838H83.1109V50.9094C82.9012 51.2496 82.6138 51.5048 82.2331 51.6982C81.8603 51.8838 81.4486 51.9843 80.998 51.9843C80.4854 51.9843 80.0193 51.876 79.6076 51.6672C79.1959 51.4584 78.8697 51.1336 78.6366 50.7083C78.3958 50.283 78.2793 49.7648 78.2793 49.1616V45.3027H79.3668V49.0147C79.3668 49.6643 79.5299 50.1592 79.8639 50.515C80.198 50.8707 80.6407 51.0408 81.2155 51.0408C81.7904 51.0408 82.2642 50.863 82.606 50.4995C82.94 50.136 83.1109 49.6179 83.1109 48.9219V45.3027H84.2062V45.2949Z" fill="#313131"/>
<path d="M91.2437 45.8978C91.7408 46.385 91.9894 47.081 91.9894 47.9935V51.8757H90.9019V48.1482C90.9019 47.4908 90.7387 46.9882 90.4047 46.6402C90.0707 46.2922 89.628 46.1143 89.0531 46.1143C88.4783 46.1143 88.0122 46.2922 87.6705 46.6556C87.3287 47.0191 87.1578 47.545 87.1578 48.2332V51.8757H86.0625V45.2868H87.1578V46.2226C87.3753 45.8823 87.6704 45.6271 88.0433 45.4415C88.4162 45.2559 88.8279 45.1631 89.2784 45.1631C90.0862 45.1631 90.7388 45.4028 91.2359 45.89L91.2437 45.8978Z" fill="#313131"/>
<path d="M93.8308 44.0036C93.6832 43.8567 93.6133 43.6866 93.6133 43.4778C93.6133 43.269 93.6832 43.0911 93.8308 42.9519C93.9784 42.8127 94.1493 42.7354 94.359 42.7354C94.5687 42.7354 94.7318 42.805 94.8717 42.9519C95.0115 43.0988 95.0814 43.269 95.0814 43.4778C95.0814 43.6866 95.0115 43.8644 94.8717 44.0036C94.7318 44.1506 94.561 44.2202 94.359 44.2202C94.157 44.2202 93.9706 44.1506 93.8308 44.0036ZM94.8872 45.2951V51.8839H93.7919V45.2951H94.8872Z" fill="#313131"/>
<path d="M96.7594 46.7873C97.0312 46.2769 97.4119 45.8825 97.9012 45.6041C98.3906 45.3257 98.9421 45.1865 99.5713 45.1865C100.387 45.1865 101.055 45.3799 101.583 45.7743C102.111 46.1687 102.461 46.71 102.624 47.406H101.443C101.327 47.0039 101.109 46.6868 100.783 46.4548C100.457 46.2228 100.053 46.1068 99.5713 46.1068C98.9421 46.1068 98.4372 46.3233 98.0488 46.7487C97.6604 47.174 97.4662 47.7849 97.4662 48.566C97.4662 49.3471 97.6604 49.9735 98.0488 50.4066C98.4372 50.8396 98.9421 51.0562 99.5713 51.0562C100.053 51.0562 100.457 50.9402 100.775 50.7159C101.102 50.4916 101.319 50.1745 101.443 49.7569H102.624C102.445 50.4298 102.096 50.9711 101.56 51.3732C101.032 51.7754 100.364 51.9764 99.5713 51.9764C98.9421 51.9764 98.3828 51.8372 97.9012 51.5588C97.4119 51.2804 97.0312 50.8783 96.7594 50.3679C96.4875 49.8575 96.3477 49.2543 96.3477 48.566C96.3477 47.8777 96.4875 47.29 96.7594 46.7796V46.7873Z" fill="#313131"/>
<path d="M104.091 46.7873C104.363 46.2769 104.744 45.8825 105.218 45.6041C105.699 45.3257 106.228 45.1865 106.818 45.1865C107.408 45.1865 107.898 45.3103 108.325 45.5577C108.752 45.8052 109.071 46.1223 109.28 46.4935V45.2948H110.391V51.8836H109.28V50.6618C109.063 51.0484 108.737 51.3655 108.309 51.6207C107.882 51.8759 107.377 51.9996 106.81 51.9996C106.243 51.9996 105.692 51.8527 105.218 51.5666C104.744 51.2804 104.371 50.8706 104.091 50.3524C103.82 49.8343 103.68 49.2388 103.68 48.5737C103.68 47.9087 103.82 47.3132 104.091 46.8028V46.7873ZM108.977 47.2745C108.775 46.9033 108.504 46.6249 108.162 46.4239C107.82 46.2228 107.447 46.13 107.035 46.13C106.624 46.13 106.251 46.2228 105.909 46.4161C105.575 46.6095 105.303 46.8879 105.101 47.2591C104.899 47.6303 104.798 48.0633 104.798 48.5583C104.798 49.0532 104.899 49.5017 105.101 49.8729C105.303 50.2442 105.575 50.5303 105.909 50.7236C106.251 50.917 106.624 51.0175 107.035 51.0175C107.447 51.0175 107.82 50.917 108.162 50.7236C108.504 50.5303 108.775 50.2442 108.977 49.8729C109.179 49.5017 109.28 49.0687 109.28 48.566C109.28 48.0633 109.179 47.638 108.977 47.2668V47.2745Z" fill="#313131"/>
<path d="M113.592 46.1926V50.0748C113.592 50.3919 113.662 50.6239 113.794 50.7553C113.934 50.8868 114.167 50.9564 114.509 50.9564H115.317V51.8844H114.33C113.717 51.8844 113.258 51.7452 112.955 51.4668C112.652 51.1884 112.497 50.7244 112.497 50.0825V46.2004H111.643V45.2956H112.497V43.6406H113.592V45.2956H115.317V46.2004H113.592V46.1926Z" fill="#313131"/>
<path d="M116.676 44.0036C116.528 43.8567 116.458 43.6866 116.458 43.4778C116.458 43.269 116.528 43.0911 116.676 42.9519C116.823 42.8127 116.994 42.7354 117.204 42.7354C117.413 42.7354 117.577 42.805 117.716 42.9519C117.856 43.0988 117.926 43.269 117.926 43.4778C117.926 43.6866 117.856 43.8644 117.716 44.0036C117.577 44.1506 117.406 44.2202 117.204 44.2202C117.002 44.2202 116.815 44.1506 116.676 44.0036ZM117.74 45.2951V51.8839H116.644V45.2951H117.74Z" fill="#313131"/>
<path d="M120.816 51.5665C120.311 51.2881 119.915 50.8859 119.635 50.3678C119.348 49.8497 119.208 49.2542 119.208 48.5737C119.208 47.8931 119.356 47.3054 119.651 46.7873C119.946 46.2691 120.342 45.8747 120.855 45.5963C121.36 45.3179 121.927 45.1787 122.556 45.1787C123.185 45.1787 123.752 45.3179 124.257 45.5963C124.762 45.8747 125.166 46.2691 125.461 46.7795C125.756 47.2899 125.904 47.8931 125.904 48.5737C125.904 49.2542 125.756 49.8497 125.453 50.3678C125.15 50.8859 124.739 51.2803 124.226 51.5665C123.713 51.8449 123.139 51.9841 122.509 51.9841C121.88 51.9841 121.329 51.8449 120.824 51.5665H120.816ZM123.605 50.7467C123.954 50.5611 124.226 50.2827 124.444 49.9193C124.653 49.5481 124.762 49.0995 124.762 48.5737C124.762 48.0478 124.661 47.5993 124.451 47.2281C124.242 46.8569 123.97 46.5862 123.628 46.4083C123.294 46.2305 122.921 46.1376 122.533 46.1376C122.144 46.1376 121.764 46.2305 121.43 46.4083C121.096 46.5862 120.831 46.8646 120.63 47.2281C120.428 47.5915 120.327 48.0478 120.327 48.5737C120.327 49.0995 120.428 49.5635 120.622 49.9347C120.816 50.3059 121.08 50.5766 121.414 50.7545C121.74 50.9323 122.105 51.0251 122.502 51.0251C122.898 51.0251 123.263 50.9323 123.612 50.7467H123.605Z" fill="#313131"/>
<path d="M132.514 45.8978C133.011 46.385 133.26 47.081 133.26 47.9935V51.8757H132.172V48.1482C132.172 47.4908 132.009 46.9882 131.675 46.6402C131.341 46.2922 130.898 46.1143 130.324 46.1143C129.749 46.1143 129.283 46.2922 128.941 46.6556C128.599 47.0191 128.428 47.545 128.428 48.2332V51.8757H127.333V45.2868H128.428V46.2226C128.646 45.8823 128.941 45.6271 129.314 45.4415C129.687 45.2559 130.098 45.1631 130.549 45.1631C131.357 45.1631 132.009 45.4028 132.506 45.89L132.514 45.8978Z" fill="#313131"/>
</svg>
