<svg width="49" height="58" viewBox="0 0 49 58" fill="none" xmlns="http://www.w3.org/2000/svg">
<path d="M0.174805 9.43917C10.2899 9.43917 18.5164 17.6357 18.5164 27.7058C18.5164 21.9882 20.2691 16.6763 23.2571 12.2529C18.2513 4.86767 9.77894 0 0.174805 0V9.43917Z" fill="#BFD262"/>
<path d="M0 48.5542C10.1151 48.5542 18.3481 40.3641 18.3481 30.2939C18.3481 36.0115 20.0943 41.3235 23.0823 45.7404C18.0829 53.1257 9.59766 57.9998 0 57.9998V48.5606V48.5542Z" fill="#D6D7DB"/>
<path d="M25.0935 12.5556C22.1056 16.9726 20.3594 22.291 20.3594 28.0085V29.2641C20.3594 32.5672 20.9608 35.735 22.0344 38.6775C22.817 40.8216 23.8389 42.8498 25.1 44.7106C26.3611 42.8498 27.383 40.8216 28.1656 38.6775C29.2392 35.735 29.8406 32.5672 29.8406 29.2641V28.0085C29.8406 17.9384 38.0672 9.7419 48.1823 9.7419V0.302734C38.5846 0.302734 30.0993 5.17041 25.0935 12.5556Z" fill="#D6D7DB"/>
</svg>
