<svg width="340" height="340" viewBox="0 0 340 340" fill="none" xmlns="http://www.w3.org/2000/svg">
<path d="M130.611 63.6724L140.141 82.3852L138.324 83.311L129.583 66.1488L129.422 66.2304L129.27 81.9292L128.442 82.3513L115.522 75.1619L115.361 75.2436L123.942 90.636L122.124 91.5618L113.071 72.1345L113.605 71.8622L128.398 80.0842L128.559 80.0025L128.686 64.6527L130.611 63.6724Z" fill="black"/>
<path d="M138.763 71.7086C138.4 70.2122 138.325 68.7589 138.538 67.3487C138.765 65.9143 139.24 64.6053 139.961 63.4217C140.696 62.2138 141.642 61.1917 142.797 60.3553C143.967 59.4947 145.3 58.8827 146.796 58.5191C148.293 58.1554 149.749 58.0899 151.163 58.3224C152.593 58.5307 153.902 59.0051 155.09 59.7454C156.294 60.4616 157.316 61.407 158.157 62.5816C159.013 63.7321 159.622 65.0555 159.986 66.552C160.35 68.0484 160.418 69.5138 160.19 70.9482C159.977 72.3583 159.502 73.6673 158.767 74.8752C158.046 76.0589 157.1 77.081 155.931 77.9415C154.775 78.7779 153.45 79.3779 151.953 79.7416C150.457 80.1052 148.994 80.1828 147.564 79.9745C146.149 79.742 144.84 79.2676 143.637 78.5514C142.449 77.8111 141.426 76.8657 140.571 75.7152C139.729 74.5406 139.127 73.2051 138.763 71.7086ZM140.979 71.1703C141.461 73.1526 142.233 74.807 143.296 76.1335C144.355 77.4405 145.617 78.3584 147.084 78.8871C148.545 79.3964 150.112 79.448 151.783 79.0419C153.454 78.6358 154.823 77.8711 155.887 76.748C156.948 75.6053 157.646 74.2008 157.982 72.5343C158.318 70.8679 158.247 69.0532 157.77 67.0903C157.294 65.1274 156.526 63.4925 155.467 62.1854C154.404 60.859 153.139 59.9314 151.673 59.4026C150.207 58.8739 148.638 58.8126 146.966 59.2187C145.295 59.6248 143.929 60.3992 142.869 61.5418C141.824 62.6603 141.123 64.0551 140.768 65.7263C140.427 67.3733 140.497 69.188 140.979 71.1703Z" fill="black"/>
<path d="M162.67 55.9084L164.92 55.8957L173.215 74.5091L173.395 74.5081L180.16 55.8095L182.41 55.7968L172.991 77.2704L172.331 77.2741L162.67 55.9084Z" fill="black"/>
<path d="M190.032 78.343L194.759 57.882L203.674 59.9418L203.343 61.3741L198.383 59.5199C197.514 59.1959 196.924 58.9979 196.612 58.9259L194.552 67.841C194.805 67.8995 195.416 68.0099 196.384 68.172L201.246 68.9873L200.935 70.3319L196.209 68.932C195.268 68.6529 194.67 68.4841 194.417 68.4256L192.155 78.2176C192.505 78.2987 193.133 78.382 194.037 78.4677L199.366 78.9908L199.035 80.4231L190.032 78.343Z" fill="black"/>
<path d="M224.211 96.5946L236.147 80.051C235.904 79.8755 235.366 79.5614 234.533 79.1087L229.326 76.2765L230.221 75.0358L244.429 85.2867L243.534 86.5275L239.205 82.4789C238.512 81.8316 238.045 81.4201 237.801 81.2446L225.865 97.7882L224.211 96.5946Z" fill="black"/>
<path d="M241.927 96.8737C243.092 95.8663 244.35 95.135 245.701 94.6799C247.081 94.2269 248.462 94.0505 249.845 94.1506C251.255 94.2528 252.596 94.6264 253.868 95.2716C255.168 95.9187 256.322 96.8247 257.33 97.9895C258.337 99.1543 259.061 100.419 259.501 101.784C259.969 103.15 260.145 104.532 260.03 105.927C259.943 107.324 259.569 108.666 258.909 109.951C258.277 111.238 257.379 112.385 256.214 113.392C255.049 114.4 253.777 115.13 252.397 115.583C251.045 116.038 249.664 116.215 248.254 116.112C246.871 116.012 245.53 115.639 244.23 114.991C242.958 114.346 241.818 113.441 240.811 112.277C239.804 111.112 239.066 109.846 238.598 108.479C238.158 107.115 237.981 105.733 238.068 104.336C238.184 102.941 238.557 101.599 239.189 100.312C239.849 99.0273 240.762 97.8811 241.927 96.8737ZM243.418 98.5982C241.875 99.9327 240.757 101.376 240.063 102.928C239.385 104.467 239.145 106.009 239.345 107.555C239.56 109.088 240.23 110.505 241.356 111.806C242.481 113.106 243.786 113.974 245.272 114.408C246.773 114.828 248.341 114.807 249.977 114.344C251.613 113.881 253.194 112.989 254.722 111.668C256.25 110.346 257.353 108.916 258.032 107.377C258.726 105.825 258.973 104.276 258.773 102.731C258.573 101.185 257.91 99.7614 256.785 98.4605C255.66 97.1596 254.347 96.2988 252.846 95.8781C251.373 95.4595 249.813 95.474 248.164 95.9218C246.543 96.3715 244.961 97.2637 243.418 98.5982Z" fill="black"/>
<path d="M260.156 148.256L279.933 143.255C279.86 142.964 279.65 142.378 279.303 141.496L277.134 135.979L278.618 135.604L282.912 152.589L281.429 152.964L280.715 147.08C280.601 146.139 280.507 145.524 280.433 145.233L260.656 150.234L260.156 148.256Z" fill="black"/>
<path d="M263.087 162.583L284.085 162.269L284.115 164.309L274.396 164.454L274.585 177.053L284.304 176.907L284.334 178.947L263.336 179.261L263.306 177.221L273.865 177.063L273.676 164.465L263.117 164.623L263.087 162.583Z" fill="black"/>
<path d="M261.877 187.907L282.381 192.444L280.404 201.378L278.969 201.06L280.777 196.083C281.092 195.211 281.285 194.619 281.354 194.306L272.42 192.329C272.364 192.583 272.259 193.195 272.106 194.165L271.336 199.034L269.989 198.735L271.345 193.996C271.615 193.053 271.778 192.454 271.834 192.2L262.022 190.029C261.944 190.38 261.866 191.008 261.789 191.913L261.316 197.247L259.88 196.929L261.877 187.907Z" fill="black"/>
<path d="M264.467 236.697L261.93 239.815C260.591 241.459 259.207 242.447 257.777 242.778C256.349 243.138 255.015 242.813 253.774 241.803C252.813 241.02 252.247 240.083 252.079 238.991C251.897 237.915 252.133 236.754 252.787 235.507L252.648 235.393C251.613 236.253 250.45 236.699 249.16 236.732C247.87 236.765 246.533 236.489 245.151 235.906C243.888 235.368 242.855 235.004 242.054 234.816C241.256 234.657 240.594 234.646 240.068 234.786C239.529 234.94 239.01 235.214 238.51 235.606L238.37 235.493L239.147 234.539C239.702 233.856 240.287 233.391 240.902 233.143C241.503 232.911 242.225 232.88 243.067 233.049C243.909 233.219 244.963 233.587 246.23 234.154C248.194 235.004 249.812 235.329 251.085 235.127C252.358 234.925 253.43 234.289 254.301 233.219L254.415 233.079L254.834 233.42L254.72 233.56C252.687 236.057 252.819 238.24 255.115 240.109C257.379 241.952 259.465 241.702 261.371 239.36L262.621 237.825L246.893 225.023L248.18 223.44L264.467 236.697Z" fill="black"/>
<path d="M230.061 242.147L242.852 258.802L241.234 260.045L228.443 243.39L230.061 242.147Z" fill="black"/>
<path d="M212.814 263.79L213.109 264.447L206.186 267.557L202.842 260.113C203.304 258.897 204.04 257.777 205.049 256.754C206.04 255.739 207.284 254.895 208.78 254.223C210.312 253.535 211.837 253.146 213.354 253.057C214.878 252.985 216.325 253.18 217.694 253.639C219.07 254.117 220.303 254.835 221.391 255.793C222.461 256.76 223.315 257.955 223.955 259.378C224.594 260.801 224.919 262.233 224.931 263.675C224.925 265.125 224.639 266.514 224.074 267.842C223.516 269.189 222.701 270.399 221.627 271.474C220.561 272.566 219.262 273.457 217.729 274.145C217.072 274.44 216.34 274.714 215.533 274.967C214.708 275.229 213.902 275.437 213.117 275.592C212.34 275.766 211.656 275.854 211.065 275.856L210.514 274.262L210.678 274.189C211.694 274.499 212.787 274.589 213.956 274.459C215.126 274.328 216.285 274.005 217.434 273.489C219.149 272.718 220.478 271.65 221.421 270.283C222.372 268.935 222.897 267.395 222.996 265.662C223.084 263.956 222.711 262.173 221.875 260.312C221.039 258.451 219.95 256.978 218.607 255.893C217.255 254.834 215.754 254.203 214.107 254.001C212.467 253.816 210.79 254.109 209.075 254.88C208.017 255.355 207.106 255.94 206.344 256.633C205.563 257.335 204.967 258.107 204.556 258.949L207.752 266.064L212.814 263.79Z" fill="black"/>
<path d="M198.249 258.679L202.204 279.303L200.201 279.688L198.37 270.142L185.995 272.515L187.826 282.061L185.823 282.445L181.867 261.821L183.871 261.437L185.86 271.808L198.234 269.435L196.245 259.064L198.249 258.679Z" fill="black"/>
<path d="M170.265 260.762L169.383 281.143C169.683 281.156 170.305 281.123 171.249 281.044L177.156 280.548L177.09 282.077L159.586 281.32L159.652 279.791L165.495 280.795C166.428 280.955 167.045 281.042 167.345 281.055L168.227 260.674L170.265 260.762Z" fill="black"/>
<path d="M127.16 278.432L125.195 277.337L127.129 257.05L126.972 256.963L111.884 269.915L109.919 268.819L128.683 254.757L129.259 255.078L127.16 278.432Z" fill="black"/>
<path d="M112.278 243.521L98.0969 259.01L96.5923 257.632L110.773 242.144L112.278 243.521Z" fill="black"/>
<path d="M99.7216 229.871L82.3509 241.671L77.2091 234.103L78.4251 233.277L80.8045 238.007C81.2222 238.835 81.521 239.382 81.7008 239.647L89.2695 234.505C89.1234 234.29 88.7502 233.794 88.1499 233.017L85.137 229.116L86.2785 228.34L88.7951 232.579C89.2961 233.423 89.6197 233.953 89.7658 234.168L98.079 228.52C97.8767 228.223 97.473 227.735 96.868 227.058L93.3134 223.054L94.5293 222.227L99.7216 229.871Z" fill="black"/>
<path d="M73.3356 229.067L72.5559 227.021L87.096 213.615L87.0319 213.447L74.2214 213.191L69.0953 217.937L68.3156 215.891L82.8103 202.535L82.7462 202.367L63.4878 203.219L62.7081 201.173L85.8006 201.621L86.0356 202.237L74.997 212.446L90.041 212.75L90.2759 213.367L73.3356 229.067Z" fill="black"/>
<path d="M57.4788 158.758L78.4755 158.384L78.5118 160.423L59.2549 160.766L59.2581 160.946L73.3052 167.957L73.3218 168.887L61.2007 177.354L61.2039 177.534L78.7994 176.561L78.8357 178.6L57.4057 178.232L57.3951 177.632L71.2645 167.934L71.2613 167.754L57.5173 160.917L57.4788 158.758Z" fill="black"/>
<path d="M68.2736 154.947C66.769 154.619 65.4295 154.05 64.255 153.241C63.0652 152.408 62.0961 151.409 61.3476 150.242C60.5838 149.052 60.0789 147.754 59.8328 146.35C59.5715 144.921 59.605 143.454 59.9334 141.95C60.2618 140.445 60.8403 139.108 61.6689 137.938C62.4822 136.744 63.4818 135.775 64.6678 135.03C65.8385 134.262 67.136 133.757 68.5604 133.516C69.9694 133.25 71.4262 133.281 72.9308 133.61C74.4354 133.938 75.7826 134.519 76.9723 135.352C78.1468 136.161 79.1159 137.16 79.8797 138.351C80.6282 139.517 81.1331 140.814 81.3945 142.243C81.6406 143.648 81.5994 145.103 81.271 146.607C80.9426 148.112 80.3718 149.461 79.5584 150.655C78.7298 151.825 77.7302 152.794 76.5595 153.562C75.3735 154.307 74.076 154.812 72.6669 155.077C71.2426 155.319 69.7781 155.276 68.2736 154.947ZM68.7598 152.72C70.7528 153.155 72.5784 153.185 74.2365 152.81C75.8751 152.43 77.2531 151.697 78.3706 150.611C79.4685 149.52 80.2008 148.134 80.5676 146.454C80.9344 144.773 80.846 143.208 80.3026 141.759C79.7396 140.306 78.7825 139.063 77.4315 138.031C76.0805 136.999 74.4182 136.268 72.4446 135.837C70.4711 135.406 68.665 135.381 67.0265 135.76C65.3683 136.135 63.9806 136.866 62.8631 137.953C61.7457 139.039 61.0036 140.423 60.6368 142.103C60.27 143.784 60.3681 145.351 60.9311 146.804C61.4789 148.234 62.4261 149.474 63.7729 150.526C65.1044 151.553 66.7667 152.285 68.7598 152.72Z" fill="black"/>
<path d="M66.2917 122.882L68.0316 119.258C68.9491 117.347 70.0646 116.063 71.378 115.407C72.682 114.724 74.0552 114.729 75.4976 115.421C76.6154 115.958 77.3838 116.737 77.8028 117.759C78.2304 118.763 78.2717 119.948 77.9269 121.313L78.0892 121.391C78.8948 120.314 79.9212 119.608 81.1682 119.275C82.4152 118.942 83.7787 118.898 85.2586 119.142C86.613 119.371 87.7017 119.483 88.5246 119.479C89.3382 119.448 89.9844 119.304 90.4633 119.046C90.9509 118.769 91.3919 118.382 91.7865 117.884L91.9487 117.962L91.4164 119.07C91.0355 119.864 90.5753 120.453 90.0358 120.837C89.505 121.203 88.8104 121.402 87.9522 121.434C87.0939 121.466 85.9829 121.354 84.6191 121.098C82.511 120.73 80.8616 120.792 79.6708 121.285C78.48 121.778 77.586 122.647 76.9887 123.891L76.9108 124.053L76.424 123.82L76.5019 123.657C77.8956 120.754 77.2582 118.663 74.5898 117.381C71.9574 116.118 69.9877 116.847 68.6806 119.569L67.8237 121.354L86.1058 130.132L85.2229 131.971L66.2917 122.882Z" fill="black"/>
<path d="M96.6882 111.761L80.3633 98.5512L86.119 91.4382L87.2617 92.3629L83.4229 96.0101C82.7509 96.6498 82.3142 97.094 82.113 97.3428L89.2259 103.098C89.3895 102.896 89.7562 102.396 90.326 101.596L93.1876 97.5826L94.2604 98.4506L90.9323 102.087C90.2692 102.811 89.8559 103.274 89.6924 103.476L97.505 109.798C97.7314 109.518 98.0811 108.99 98.5539 108.215L101.358 103.653L102.5 104.578L96.6882 111.761Z" fill="black"/>
</svg>
