<svg width="266" height="269" viewBox="0 0 266 269" fill="none" xmlns="http://www.w3.org/2000/svg">
<path d="M113.455 246.032L114.907 225.082L116.942 225.223L115.611 244.437L115.79 244.45L123.995 231.065L124.923 231.129L132.305 243.94L132.485 243.953L133.044 226.339L135.079 226.48L132.85 247.797L132.251 247.756L123.794 233.096L123.615 233.083L115.61 246.181L113.455 246.032Z" fill="black"/>
<path d="M110.597 234.947C110.139 236.417 109.456 237.703 108.548 238.802C107.615 239.915 106.535 240.794 105.308 241.438C104.056 242.095 102.719 242.486 101.299 242.609C99.8527 242.745 98.3945 242.584 96.9242 242.126C95.4538 241.668 94.1718 240.976 93.078 240.049C91.9591 239.135 91.0805 238.055 90.4422 236.809C89.7788 235.576 89.3885 234.239 89.2714 232.799C89.1292 231.372 89.287 229.924 89.7449 228.453C90.2028 226.983 90.8983 225.691 91.8314 224.579C92.7395 223.479 93.8195 222.6 95.0716 221.943C96.2987 221.298 97.6352 220.908 99.0811 220.772C100.502 220.649 101.948 220.816 103.418 221.274C104.888 221.732 106.183 222.418 107.302 223.332C108.395 224.259 109.274 225.339 109.937 226.572C110.576 227.818 110.966 229.155 111.108 230.582C111.225 232.022 111.055 233.477 110.597 234.947ZM108.42 234.269C109.027 232.321 109.215 230.505 108.986 228.821C108.75 227.156 108.14 225.719 107.154 224.511C106.163 223.323 104.846 222.473 103.204 221.962C101.562 221.45 99.995 221.402 98.5041 221.818C97.0072 222.252 95.686 223.098 94.5407 224.354C93.3954 225.61 92.5224 227.203 91.9218 229.131C91.3212 231.06 91.1386 232.857 91.3741 234.522C91.6037 236.207 92.2112 237.653 93.1967 238.86C94.1822 240.068 95.4961 240.928 97.1383 241.439C98.7805 241.95 100.35 241.989 101.847 241.554C103.319 241.133 104.637 240.297 105.801 239.047C106.941 237.809 107.814 236.217 108.42 234.269Z" fill="black"/>
<path d="M81.9685 236.2L80.0324 235.054L82.4925 214.825L82.3376 214.733L66.9189 227.289L64.9828 226.143L84.1052 212.572L84.6731 212.909L81.9685 236.2Z" fill="black"/>
<path d="M70.0431 202.887L55.4648 218.003L48.8789 211.651L49.8993 210.593L53.1992 214.734C53.778 215.459 54.1827 215.932 54.413 216.155L60.765 209.569C60.5778 209.388 60.1107 208.979 59.3637 208.342L55.6142 205.143L56.5722 204.149L59.9052 207.781C60.5689 208.504 60.9944 208.956 61.1815 209.137L68.1583 201.903C67.8992 201.653 67.4041 201.259 66.673 200.721L62.3719 197.531L63.3924 196.473L70.0431 202.887Z" fill="black"/>
<path d="M50.1197 169.655L31.3743 177.703C31.4926 177.979 31.7924 178.525 32.2735 179.341L35.2824 184.448L33.8765 185.052L26.9646 168.953L28.3705 168.349L30.0011 174.048C30.2617 174.959 30.4511 175.553 30.5695 175.828L49.3149 167.78L50.1197 169.655Z" fill="black"/>
<path d="M35.0707 160.303C33.5536 160.568 32.0985 160.548 30.7053 160.243C29.2889 159.922 28.0138 159.363 26.8799 158.566C25.7228 157.753 24.7648 156.743 24.0058 155.535C23.2237 154.311 22.7003 152.941 22.4355 151.424C22.1706 149.907 22.2005 148.45 22.5252 147.053C22.8267 145.64 23.3858 144.365 24.2023 143.228C24.9958 142.074 26.0061 141.116 27.2333 140.354C28.4373 139.575 29.7978 139.054 31.3149 138.789C32.832 138.524 34.2987 138.552 35.715 138.873C37.1082 139.178 38.3833 139.737 39.5404 140.55C40.6743 141.347 41.6323 142.358 42.4144 143.581C43.1734 144.789 43.6853 146.151 43.9501 147.668C44.2149 149.185 44.1966 150.65 43.8951 152.063C43.5704 153.46 43.0114 154.735 42.2179 155.888C41.4013 157.026 40.391 157.984 39.187 158.763C37.9598 159.525 36.5877 160.039 35.0707 160.303ZM34.6786 158.057C36.6882 157.706 38.3896 157.044 39.7828 156.07C41.1564 155.099 42.155 153.9 42.7786 152.471C43.3825 151.046 43.5366 149.486 43.2408 147.792C42.945 146.098 42.2716 144.682 41.2206 143.546C40.1498 142.413 38.794 141.625 37.1532 141.18C35.5123 140.736 33.6969 140.687 31.707 141.035C29.7171 141.382 28.0354 142.041 26.6618 143.012C25.2686 143.986 24.2601 145.187 23.6365 146.616C23.0129 148.044 22.8489 149.606 23.1447 151.3C23.4405 152.994 24.1238 154.408 25.1945 155.541C26.2421 156.657 27.5881 157.448 29.2324 157.912C30.8536 158.36 32.669 158.408 34.6786 158.057Z" fill="black"/>
<path d="M45.8667 106.863L26.3337 100.979C26.2472 101.266 26.1258 101.877 25.9696 102.812L24.9917 108.658L23.5267 108.217L28.5801 91.4416L30.0451 91.8829L27.631 97.2966C27.2449 98.1621 27.0087 98.7384 26.9221 99.0257L46.4551 104.91L45.8667 106.863Z" fill="black"/>
<path d="M50.7222 93.0688L32.5537 82.5377L33.5767 80.7728L41.9861 85.6471L48.3047 74.746L39.8953 69.8716L40.9183 68.1067L59.0869 78.6377L58.0639 80.4027L48.9277 75.107L42.609 86.0082L51.7453 91.3038L50.7222 93.0688Z" fill="black"/>
<path d="M64.7859 71.9739L49.5357 57.5368L55.8262 50.892L56.8937 51.9026L52.7833 55.2408C52.0637 55.8264 51.5939 56.2354 51.3739 56.4678L58.0186 62.7583C58.1974 62.5695 58.6018 62.0986 59.232 61.3457L62.3965 57.5665L63.3987 58.5152L59.7984 61.8819C59.0811 62.5523 58.6331 62.982 58.4543 63.1708L65.7527 70.08C66.0002 69.8185 66.3897 69.3198 66.9213 68.5837L70.0707 64.2532L71.1383 65.2638L64.7859 71.9739Z" fill="black"/>
<path d="M90.2077 27.8778L92.1259 27.1834L99.0703 46.365C99.4276 46.2356 99.9714 45.975 100.702 45.583L105.129 43.1825L105.65 44.6211L97.3564 47.6236L90.2077 27.8778Z" fill="black"/>
<path d="M117.146 42.1488L114.744 21.2867L123.833 20.24L124.002 21.7003L118.707 21.6154C117.779 21.6015 117.157 21.6128 116.839 21.6494L117.885 30.7393C118.144 30.7096 118.756 30.6089 119.723 30.4371L124.576 29.5763L124.734 30.9472L119.812 31.212C118.832 31.2645 118.212 31.3056 117.954 31.3354L119.104 41.3194C119.461 41.2782 120.08 41.1466 120.961 40.9244L126.157 39.6315L126.325 41.0918L117.146 42.1488Z" fill="black"/>
<path d="M139.427 41.3972L141.9 20.5433L150.659 21.5822L150.486 23.042L145.622 21.7702C144.742 21.5451 144.153 21.4148 143.855 21.3795L142.749 30.7041C143.067 30.7418 143.686 30.785 144.607 30.8338L149.2 31.0765L149.038 32.4469L144.515 31.6084C143.609 31.4404 142.997 31.3376 142.679 31.2999L141.453 41.6374L139.427 41.3972Z" fill="black"/>
<path d="M162.158 46.3522L169.168 27.1944C168.886 27.0913 168.283 26.9346 167.359 26.7243L161.58 25.4081L162.105 23.9713L178.559 29.9916L178.033 31.4284L172.769 28.7036C171.927 28.2679 171.365 27.9985 171.084 27.8954L164.074 47.0532L162.158 46.3522Z" fill="black"/>
<path d="M211.431 55.6958L213.014 57.2946L205.517 76.2438L205.644 76.3717L223.737 68.1238L225.32 69.7226L203.387 78.0153L202.923 77.5463L211.431 55.6958Z" fill="black"/>
<path d="M215.278 91.2281L234.524 82.826L235.34 84.6956L216.094 93.0977L215.278 91.2281Z" fill="black"/>
<path d="M220.763 106.851L241.428 103.114L243.057 112.118L241.61 112.379L241.355 107.09C241.309 106.164 241.258 105.543 241.201 105.228L232.197 106.856C232.243 107.112 232.383 107.717 232.616 108.671L233.787 113.459L232.429 113.704L231.849 108.809C231.734 107.834 231.653 107.219 231.606 106.963L221.717 108.752C221.781 109.106 221.952 109.715 222.23 110.579L223.854 115.682L222.408 115.943L220.763 106.851Z" fill="black"/>
<path d="M244.257 121.44L244.139 123.627L225.411 129.979L225.401 130.159L237.006 135.591L243.617 133.333L243.499 135.52L224.832 141.845L224.822 142.025L242.77 149.06L242.652 151.247L221.728 141.468L221.763 140.809L235.995 135.957L222.368 129.575L222.403 128.916L244.257 121.44Z" fill="black"/>
<path d="M225.079 202.105L206.881 191.626L207.899 189.858L224.589 199.469L224.679 199.313L216.239 186.075L216.703 185.27L231.453 184.243L231.543 184.087L215.952 175.871L216.97 174.104L235.159 185.442L234.859 185.962L217.977 187.145L217.887 187.301L226.157 200.233L225.079 202.105Z" fill="black"/>
<path d="M213.862 199.821C214.983 200.876 215.84 202.053 216.431 203.351C217.023 204.677 217.34 206.033 217.381 207.418C217.424 208.832 217.19 210.204 216.678 211.535C216.168 212.895 215.385 214.135 214.329 215.257C213.274 216.378 212.09 217.228 210.777 217.805C209.465 218.41 208.11 218.727 206.71 218.756C205.311 218.812 203.938 218.578 202.593 218.052C201.248 217.556 200.014 216.779 198.893 215.724C197.772 214.668 196.915 213.477 196.323 212.151C195.732 210.853 195.415 209.497 195.372 208.084C195.33 206.699 195.565 205.326 196.075 203.967C196.587 202.635 197.37 201.409 198.426 200.288C199.481 199.166 200.665 198.303 201.977 197.697C203.289 197.12 204.645 196.803 206.044 196.746C207.444 196.718 208.816 196.953 210.161 197.449C211.507 197.975 212.741 198.765 213.862 199.821ZM212.299 201.481C210.814 200.083 209.264 199.118 207.649 198.587C206.049 198.069 204.49 197.989 202.973 198.346C201.47 198.717 200.129 199.529 198.95 200.781C197.771 202.034 197.042 203.421 196.763 204.943C196.498 206.479 196.68 208.037 197.307 209.617C197.935 211.197 198.985 212.679 200.456 214.064C201.927 215.448 203.462 216.399 205.062 216.917C206.677 217.448 208.243 217.535 209.761 217.178C211.278 216.821 212.626 216.016 213.805 214.763C214.984 213.511 215.706 212.117 215.97 210.581C216.236 209.073 216.062 207.522 215.448 205.927C214.834 204.361 213.785 202.879 212.299 201.481Z" fill="black"/>
<path d="M199.069 228.339L195.712 230.552C193.943 231.719 192.326 232.246 190.862 232.133C189.392 232.048 188.217 231.337 187.336 230.002C186.654 228.966 186.396 227.903 186.562 226.811C186.712 225.73 187.286 224.693 188.284 223.699L188.185 223.549C186.939 224.059 185.696 224.135 184.456 223.78C183.215 223.424 182.023 222.761 180.88 221.79C179.836 220.897 178.96 220.241 178.252 219.821C177.538 219.429 176.91 219.221 176.366 219.196C175.806 219.182 175.229 219.287 174.634 219.511L174.535 219.361L175.562 218.684C176.297 218.2 176.994 217.931 177.654 217.879C178.298 217.838 178.996 218.025 179.748 218.439C180.501 218.853 181.396 219.521 182.434 220.441C184.052 221.842 185.499 222.637 186.774 222.826C188.049 223.016 189.262 222.731 190.414 221.971L190.564 221.872L190.862 222.323L190.711 222.422C188.023 224.194 187.494 226.316 189.123 228.787C190.731 231.225 192.795 231.613 195.316 229.95L196.969 228.861L185.805 211.93L187.509 210.807L199.069 228.339Z" fill="black"/>
<path d="M167.281 222.241L174.486 241.966L165.892 245.106L165.388 243.725L170.556 242.572C171.461 242.369 172.064 242.212 172.364 242.102L169.225 233.508C168.981 233.597 168.409 233.838 167.509 234.231L162.99 236.201L162.517 234.904L167.241 233.498C168.182 233.218 168.775 233.034 169.019 232.944L165.571 223.504C165.233 223.628 164.662 223.9 163.857 224.322L159.106 226.792L158.602 225.411L167.281 222.241Z" fill="black"/>
</svg>
