<svg width="135" height="58" viewBox="0 0 135 58" fill="none" xmlns="http://www.w3.org/2000/svg">
<path d="M0.174805 9.43917C10.2899 9.43917 18.5164 17.6357 18.5164 27.7058C18.5164 21.9882 20.2691 16.6763 23.2571 12.2529C18.2513 4.86767 9.77894 0 0.174805 0V9.43917Z" fill="#BFD262"/>
<path d="M0 48.5544C10.1151 48.5544 18.3481 40.3643 18.3481 30.2942C18.3481 36.0118 20.0943 41.3237 23.0823 45.7407C18.0829 53.1259 9.59766 58 0 58V48.5608V48.5544Z" fill="#D6D7DB"/>
<path d="M25.0935 12.5556C22.1056 16.9726 20.3594 22.291 20.3594 28.0085V29.2641C20.3594 32.5672 20.9608 35.735 22.0344 38.6775C22.817 40.8216 23.8389 42.8498 25.1 44.7106C26.3611 42.8498 27.383 40.8216 28.1656 38.6775C29.2392 35.735 29.8406 32.5672 29.8406 29.2641V28.0085C29.8406 17.9384 38.0672 9.7419 48.1823 9.7419V0.302734C38.5846 0.302734 30.0993 5.17041 25.0935 12.5556Z" fill="#D6D7DB"/>
<path d="M57.1372 19.1282L50.0495 32.766V39.4985H45.0643V32.766L37.9766 19.1282H43.6337L47.6003 27.659L51.5379 19.1282H57.1372Z" fill="#313131"/>
<path d="M64.1381 23.1059V27.2274H70.814V31.0612H64.1381V35.528H71.6882V39.5057H59.1528V19.1282H71.6882V23.1059H64.1381Z" fill="#313131"/>
<path d="M78.3065 38.9806C77.1216 38.4987 76.1751 37.7794 75.467 36.83C74.759 35.8805 74.3833 34.7368 74.3472 33.4061H79.6503C79.7298 34.1614 79.9899 34.7368 80.4378 35.1324C80.8858 35.528 81.471 35.7294 82.1863 35.7294C82.9016 35.7294 83.5085 35.5568 83.9347 35.2187C84.361 34.8807 84.5778 34.4131 84.5778 33.8089C84.5778 33.3054 84.4044 32.8882 84.0648 32.5574C83.7252 32.2265 83.3062 31.9603 82.8076 31.7446C82.3091 31.5288 81.6083 31.2914 80.6907 31.0181C79.3685 30.6153 78.292 30.2053 77.4539 29.8025C76.6158 29.3997 75.9005 28.7955 75.2936 28.0042C74.694 27.213 74.3905 26.1772 74.3905 24.8969C74.3905 22.998 75.0769 21.5162 76.4569 20.4445C77.8368 19.3727 79.6359 18.8333 81.8467 18.8333C84.0576 18.8333 85.9216 19.3727 87.3016 20.4445C88.6816 21.5162 89.4185 23.0123 89.5197 24.9257H84.1298C84.0937 24.2711 83.848 23.7532 83.4001 23.372C82.9521 22.998 82.3814 22.8037 81.6805 22.8037C81.0809 22.8037 80.5896 22.962 80.2211 23.2857C79.8526 23.6022 79.6648 24.0625 79.6648 24.6667C79.6648 25.3213 79.9754 25.8392 80.5968 26.206C81.2181 26.5728 82.1935 26.9685 83.5157 27.3928C84.8379 27.8388 85.9144 28.2632 86.738 28.6732C87.5617 29.076 88.277 29.673 88.8839 30.4426C89.4835 31.2195 89.787 32.2121 89.787 33.4349C89.787 34.6577 89.4908 35.6503 88.8983 36.5998C88.3059 37.5492 87.4461 38.3045 86.319 38.8655C85.1919 39.4266 83.8625 39.7071 82.3236 39.7071C80.7846 39.7071 79.4841 39.4626 78.2992 38.9806H78.3065Z" fill="#313131"/>
<path d="M97.2362 38.3763C95.6322 37.4844 94.3606 36.24 93.4141 34.6432C92.4677 33.0464 91.998 31.2553 91.998 29.2557C91.998 27.2561 92.4677 25.4722 93.4141 23.8898C94.3534 22.3001 95.6322 21.0629 97.2362 20.1782C98.8401 19.2863 100.603 18.8403 102.525 18.8403C104.447 18.8403 106.21 19.2863 107.814 20.1782C109.418 21.0701 110.682 22.3073 111.607 23.8898C112.531 25.4794 112.994 27.2632 112.994 29.2557C112.994 31.2481 112.524 33.0464 111.592 34.6432C110.66 36.24 109.396 37.4844 107.799 38.3763C106.202 39.2682 104.447 39.7142 102.525 39.7142C100.603 39.7142 98.8401 39.2682 97.2362 38.3763ZM106.448 33.5571C107.431 32.4709 107.922 31.0395 107.922 29.2629C107.922 27.4862 107.431 26.0261 106.448 24.9543C105.465 23.8826 104.158 23.3431 102.525 23.3431C100.892 23.3431 99.5554 23.8754 98.5728 24.9399C97.5902 26.0045 97.0989 27.4431 97.0989 29.2629C97.0989 31.0827 97.5902 32.4997 98.5728 33.5714C99.5554 34.6432 100.87 35.1827 102.525 35.1827C104.179 35.1827 105.465 34.6432 106.448 33.5571Z" fill="#313131"/>
<path d="M134.076 39.5057H129.091L120.753 26.9397V39.5057H115.768V19.1282H120.753L129.091 31.7518V19.1282H134.076V39.5057Z" fill="#313131"/>
<path d="M38.4224 46.7878C38.6943 46.2774 39.0749 45.883 39.5643 45.6046C40.0536 45.3262 40.6052 45.187 41.2344 45.187C42.05 45.187 42.718 45.3803 43.2462 45.7748C43.7744 46.1692 44.124 46.7105 44.2871 47.4065H43.1064C42.9899 47.0044 42.7724 46.6873 42.4461 46.4553C42.1199 46.2233 41.716 46.1073 41.2344 46.1073C40.6052 46.1073 40.1002 46.3238 39.7119 46.7492C39.3235 47.1745 39.1293 47.7854 39.1293 48.5665C39.1293 49.3476 39.3235 49.974 39.7119 50.407C40.1002 50.8401 40.6052 51.0566 41.2344 51.0566C41.716 51.0566 42.1199 50.9406 42.4384 50.7164C42.7569 50.4921 42.9821 50.175 43.0986 49.7574H44.2794C44.1007 50.4302 43.7511 50.9716 43.2152 51.3737C42.6869 51.7759 42.0189 51.9769 41.2266 51.9769C40.5974 51.9769 40.0381 51.8377 39.5565 51.5593C39.0671 51.2809 38.6865 50.8788 38.4146 50.3684C38.1428 49.858 38.0029 49.2548 38.0029 48.5665C38.0029 47.8782 38.1428 47.2905 38.4146 46.7801L38.4224 46.7878Z" fill="#313131"/>
<path d="M46.9517 51.5672C46.4468 51.2888 46.0506 50.8867 45.771 50.3685C45.4836 49.8504 45.3438 49.2549 45.3438 48.5744C45.3438 47.8939 45.4913 47.3061 45.7865 46.788C46.0817 46.2699 46.4779 45.8754 46.9905 45.597C47.5032 45.3186 48.0625 45.1794 48.6917 45.1794C49.3209 45.1794 49.8879 45.3186 50.3929 45.597C50.8978 45.8754 51.3017 46.2698 51.5969 46.7803C51.8921 47.2907 52.0396 47.8939 52.0396 48.5744C52.0396 49.2549 51.8921 49.8504 51.5891 50.3685C51.2862 50.8867 50.8822 51.2811 50.3618 51.5672C49.8491 51.8456 49.2743 51.9848 48.6451 51.9848C48.0159 51.9848 47.4644 51.8456 46.9595 51.5672H46.9517ZM49.7404 50.7475C50.0899 50.5619 50.3696 50.2835 50.5793 49.92C50.789 49.5488 50.8978 49.1003 50.8978 48.5744C50.8978 48.0485 50.7968 47.6 50.5871 47.2288C50.3773 46.8576 50.1054 46.5869 49.7637 46.4091C49.4219 46.2312 49.0568 46.1384 48.6684 46.1384C48.28 46.1384 47.8994 46.2312 47.5654 46.4091C47.2313 46.5869 46.9672 46.8653 46.7653 47.2288C46.5633 47.6 46.4623 48.0485 46.4623 48.5744C46.4623 49.1003 46.5633 49.5643 46.7575 49.9355C46.9517 50.3067 47.2158 50.5773 47.5498 50.7552C47.8761 50.9331 48.2412 51.0259 48.6373 51.0259C49.0335 51.0259 49.3986 50.9331 49.7481 50.7475H49.7404Z" fill="#313131"/>
<path d="M62.8058 45.4886C63.2097 45.6974 63.5282 46.0222 63.7612 46.4476C63.9942 46.8729 64.1108 47.391 64.1108 47.9942V51.8764H63.0233V48.1489C63.0233 47.4916 62.8601 46.9889 62.5339 46.6409C62.2076 46.2929 61.7649 46.115 61.2133 46.115C60.6618 46.115 60.188 46.3006 59.8462 46.6641C59.5044 47.0276 59.3413 47.5534 59.3413 48.2417V51.8687H58.2538V48.1412C58.2538 47.4838 58.0907 46.9812 57.7644 46.6332C57.4382 46.2852 56.9954 46.1073 56.4439 46.1073C55.8924 46.1073 55.4185 46.2929 55.0767 46.6564C54.735 47.0198 54.5718 47.5457 54.5718 48.234V51.8609H53.4766V45.2721H54.5718V46.2233C54.7893 45.8753 55.0845 45.6124 55.4496 45.4268C55.8147 45.2412 56.2186 45.1484 56.6614 45.1484C57.2129 45.1484 57.71 45.2721 58.1373 45.5196C58.5645 45.767 58.883 46.1305 59.0927 46.61C59.2792 46.146 59.5821 45.7825 60.0093 45.5273C60.4366 45.2721 60.9104 45.1406 61.4308 45.1406C61.9513 45.1406 62.4018 45.2489 62.8058 45.4577V45.4886Z" fill="#313131"/>
<path d="M75.2345 45.4886C75.6384 45.6974 75.9569 46.0222 76.1899 46.4476C76.423 46.8729 76.5395 47.391 76.5395 47.9942V51.8764H75.452V48.1489C75.452 47.4916 75.2888 46.9889 74.9626 46.6409C74.6363 46.2929 74.1936 46.115 73.6421 46.115C73.0905 46.115 72.6167 46.3006 72.2749 46.6641C71.9331 47.0276 71.77 47.5534 71.77 48.2417V51.8687H70.6825V48.1412C70.6825 47.4838 70.5194 46.9812 70.1931 46.6332C69.8669 46.2852 69.4241 46.1073 68.8726 46.1073C68.3211 46.1073 67.8472 46.2929 67.5055 46.6564C67.1637 47.0198 67.0005 47.5457 67.0005 48.234V51.8609H65.9053V45.2721H67.0005V46.2233C67.218 45.8753 67.5132 45.6124 67.8783 45.4268C68.2434 45.2412 68.6473 45.1484 69.0901 45.1484C69.6416 45.1484 70.1388 45.2721 70.566 45.5196C70.9932 45.767 71.3117 46.1305 71.5214 46.61C71.7079 46.146 72.0108 45.7825 72.438 45.5273C72.8653 45.2721 73.3391 45.1406 73.8596 45.1406C74.38 45.1406 74.8305 45.2489 75.2345 45.4577V45.4886Z" fill="#313131"/>
<path d="M84.2062 45.2952V51.884H83.1109V50.9096C82.9012 51.2499 82.6138 51.5051 82.2331 51.6984C81.8603 51.884 81.4486 51.9845 80.998 51.9845C80.4854 51.9845 80.0193 51.8763 79.6076 51.6675C79.1959 51.4587 78.8697 51.1339 78.6366 50.7085C78.3958 50.2832 78.2793 49.7651 78.2793 49.1619V45.3029H79.3668V49.0149C79.3668 49.6645 79.5299 50.1595 79.8639 50.5152C80.198 50.8709 80.6407 51.0411 81.2155 51.0411C81.7904 51.0411 82.2642 50.8632 82.606 50.4997C82.94 50.1363 83.1109 49.6181 83.1109 48.9221V45.3029H84.2062V45.2952Z" fill="#313131"/>
<path d="M91.2437 45.8985C91.7408 46.3857 91.9894 47.0817 91.9894 47.9942V51.8764H90.9019V48.1489C90.9019 47.4916 90.7387 46.9889 90.4047 46.6409C90.0707 46.2929 89.628 46.115 89.0531 46.115C88.4783 46.115 88.0122 46.2929 87.6705 46.6564C87.3287 47.0198 87.1578 47.5457 87.1578 48.234V51.8764H86.0625V45.2875H87.1578V46.2233C87.3753 45.883 87.6704 45.6278 88.0433 45.4422C88.4162 45.2566 88.8279 45.1638 89.2784 45.1638C90.0862 45.1638 90.7388 45.4035 91.2359 45.8908L91.2437 45.8985Z" fill="#313131"/>
<path d="M93.8303 44.0039C93.6827 43.8569 93.6128 43.6868 93.6128 43.478C93.6128 43.2692 93.6827 43.0913 93.8303 42.9521C93.9779 42.8129 94.1488 42.7356 94.3585 42.7356C94.5682 42.7356 94.7314 42.8052 94.8712 42.9521C95.011 43.0991 95.0809 43.2692 95.0809 43.478C95.0809 43.6868 95.011 43.8647 94.8712 44.0039C94.7314 44.1508 94.5605 44.2204 94.3585 44.2204C94.1565 44.2204 93.9701 44.1508 93.8303 44.0039ZM94.8867 45.2953V51.8842H93.7915V45.2953H94.8867Z" fill="#313131"/>
<path d="M96.7589 46.7878C97.0307 46.2774 97.4114 45.883 97.9007 45.6046C98.3901 45.3262 98.9416 45.187 99.5708 45.187C100.386 45.187 101.054 45.3803 101.583 45.7748C102.111 46.1692 102.46 46.7105 102.624 47.4065H101.443C101.326 47.0044 101.109 46.6873 100.783 46.4553C100.456 46.2233 100.052 46.1073 99.5708 46.1073C98.9416 46.1073 98.4367 46.3238 98.0483 46.7492C97.6599 47.1745 97.4657 47.7854 97.4657 48.5665C97.4657 49.3476 97.6599 49.974 98.0483 50.407C98.4367 50.8401 98.9416 51.0566 99.5708 51.0566C100.052 51.0566 100.456 50.9406 100.775 50.7164C101.101 50.4921 101.319 50.175 101.443 49.7574H102.624C102.445 50.4302 102.095 50.9716 101.559 51.3737C101.031 51.7759 100.363 51.9769 99.5708 51.9769C98.9416 51.9769 98.3823 51.8377 97.9007 51.5593C97.4114 51.2809 97.0307 50.8788 96.7589 50.3684C96.487 49.858 96.3472 49.2548 96.3472 48.5665C96.3472 47.8782 96.487 47.2905 96.7589 46.7801V46.7878Z" fill="#313131"/>
<path d="M104.092 46.7878C104.364 46.2774 104.744 45.883 105.218 45.6046C105.7 45.3262 106.228 45.187 106.818 45.187C107.409 45.187 107.898 45.3107 108.325 45.5582C108.753 45.8057 109.071 46.1227 109.281 46.4939V45.2953H110.392V51.8841H109.281V50.6622C109.063 51.0489 108.737 51.366 108.31 51.6212C107.883 51.8764 107.378 52.0001 106.811 52.0001C106.244 52.0001 105.692 51.8532 105.218 51.567C104.744 51.2809 104.372 50.871 104.092 50.3529C103.82 49.8348 103.68 49.2393 103.68 48.5742C103.68 47.9092 103.82 47.3137 104.092 46.8033V46.7878ZM108.978 47.275C108.776 46.9038 108.504 46.6254 108.162 46.4244C107.82 46.2233 107.448 46.1305 107.036 46.1305C106.624 46.1305 106.251 46.2233 105.91 46.4166C105.576 46.61 105.304 46.8884 105.102 47.2596C104.9 47.6308 104.799 48.0638 104.799 48.5588C104.799 49.0537 104.9 49.5022 105.102 49.8734C105.304 50.2446 105.576 50.5308 105.91 50.7241C106.251 50.9174 106.624 51.018 107.036 51.018C107.448 51.018 107.82 50.9174 108.162 50.7241C108.504 50.5308 108.776 50.2446 108.978 49.8734C109.18 49.5022 109.281 49.0692 109.281 48.5665C109.281 48.0638 109.18 47.6385 108.978 47.2673V47.275Z" fill="#313131"/>
<path d="M113.592 46.1926V50.0748C113.592 50.3919 113.662 50.6239 113.794 50.7553C113.934 50.8868 114.167 50.9564 114.508 50.9564H115.316V51.8844H114.33C113.716 51.8844 113.258 51.7452 112.955 51.4668C112.652 51.1884 112.497 50.7244 112.497 50.0825V46.2004H111.642V45.2956H112.497V43.6406H113.592V45.2956H115.316V46.2004H113.592V46.1926Z" fill="#313131"/>
<path d="M116.676 44.0039C116.528 43.8569 116.458 43.6868 116.458 43.478C116.458 43.2692 116.528 43.0913 116.676 42.9521C116.824 42.8129 116.994 42.7356 117.204 42.7356C117.414 42.7356 117.577 42.8052 117.717 42.9521C117.857 43.0991 117.927 43.2692 117.927 43.478C117.927 43.6868 117.857 43.8647 117.717 44.0039C117.577 44.1508 117.406 44.2204 117.204 44.2204C117.002 44.2204 116.816 44.1508 116.676 44.0039ZM117.74 45.2953V51.8842H116.645V45.2953H117.74Z" fill="#313131"/>
<path d="M120.816 51.5672C120.311 51.2888 119.915 50.8867 119.635 50.3685C119.348 49.8504 119.208 49.2549 119.208 48.5744C119.208 47.8939 119.356 47.3061 119.651 46.788C119.946 46.2699 120.342 45.8754 120.855 45.597C121.36 45.3186 121.927 45.1794 122.556 45.1794C123.185 45.1794 123.752 45.3186 124.257 45.597C124.762 45.8754 125.166 46.2698 125.461 46.7803C125.756 47.2907 125.904 47.8939 125.904 48.5744C125.904 49.2549 125.756 49.8504 125.453 50.3685C125.15 50.8867 124.739 51.2811 124.226 51.5672C123.713 51.8456 123.139 51.9848 122.509 51.9848C121.88 51.9848 121.329 51.8456 120.824 51.5672H120.816ZM123.605 50.7475C123.954 50.5619 124.226 50.2835 124.444 49.92C124.653 49.5488 124.762 49.1003 124.762 48.5744C124.762 48.0485 124.661 47.6 124.451 47.2288C124.242 46.8576 123.97 46.5869 123.628 46.4091C123.294 46.2312 122.921 46.1384 122.533 46.1384C122.144 46.1384 121.764 46.2312 121.43 46.4091C121.096 46.5869 120.831 46.8653 120.63 47.2288C120.428 47.5923 120.327 48.0485 120.327 48.5744C120.327 49.1003 120.428 49.5643 120.622 49.9355C120.816 50.3067 121.08 50.5773 121.414 50.7552C121.74 50.9331 122.105 51.0259 122.502 51.0259C122.898 51.0259 123.263 50.9331 123.612 50.7475H123.605Z" fill="#313131"/>
<path d="M132.515 45.8985C133.012 46.3857 133.26 47.0817 133.26 47.9942V51.8764H132.173V48.1489C132.173 47.4916 132.01 46.9889 131.676 46.6409C131.342 46.2929 130.899 46.115 130.324 46.115C129.749 46.115 129.283 46.2929 128.941 46.6564C128.6 47.0198 128.429 47.5457 128.429 48.234V51.8764H127.333V45.2875H128.429V46.2233C128.646 45.883 128.941 45.6278 129.314 45.4422C129.687 45.2566 130.099 45.1638 130.549 45.1638C131.357 45.1638 132.01 45.4035 132.507 45.8908L132.515 45.8985Z" fill="#313131"/>
</svg>
